<svg xmlns="http://www.w3.org/2000/svg" viewBox="0 0 16 16">
  <path fill="#424242" d="M8 0a8 8 0 1 0 8 8 8 8 0 0 0-8-8zm4.5 9.5a.5.5 0 0 1-1 0V7.29a.5.5 0 0 1 .15-.36l.79-.79a.5.5 0 0 1 .7 0 .5.5 0 0 1 0 .7L9 8.21V9.5a.5.5 0 0 1-1 0V6.79a.5.5 0 0 1 .15-.36l.79-.79a.5.5 0 0 1 .7 0 .5.5 0 0 1 0 .7L10 7.21V9.5a.5.5 0 0 1-1 0v-2.21a.5.5 0 0 1 .15-.36l.79-.79a.5.5 0 0 1 .7 0 .5.5 0 0 1 0 .7L11 7.21V9.5a.5.5 0 0 1-1 0v-2.21a.5.5 0 0 1 .15-.36l.79-.79a.5.5 0 0 1 .7 0 .5.5 0 0 1 0 .7L12 7.21V9.5a.5.5 0 0 1-1 0v-2.21a.5.5 0 0 1 .15-.36l.79-.79a.5.5 0 0 1 .7 0 .5.5 0 0 1 0 .7L13 7.21V9.5z"/>
</svg>