<?xml version="1.0" standalone="no"?>
<svg version="1.0" xmlns="http://www.w3.org/2000/svg"
 width="24" height="24" viewBox="0 0 128 128"
 preserveAspectRatio="xMidYMid meet">
<g transform="translate(0.000000,128.000000) scale(0.100000,-0.100000)"
 fill="currentColor" stroke="none">
<path d="M421 769 l139 -111 3 112 c2 103 4 112 21 107 38 -10 371 -223 371 -237 0 -14 -333 -227 -371 -237 -17 -5 -19 4 -21 107 l-3 112 -139 -111 -139 -111 -28 37 c-22 30 -25 40 -15 48 120 95 186 150 186 155 0 4 -45 42 -99 85 l-100 79 27 38 c15 21 28 38 28 38 1 0 64 -50 140 -111z m734 -699 c0 -5 -4 -10 -10 -10 -5 0 -10 5 -10 10 0 6 5 10 10 10 6 0 10 -4 10 -10z"/>
<path d="M720 640 l0 -91 50 28 c28 15 60 36 73 46 l22 17 -22 18 c-13 9 -45 30 -73 45 l-50 28 0 -91z"/>
</g>
</svg>
